<svg xmlns="http://www.w3.org/2000/svg" viewBox="0 0 113.32 113.26"><defs><style>.cls-1{fill:#54b848;}.cls-2{fill:#f58220;}</style></defs><g id="Layer_2" data-name="Layer 2"><g id="Layer_1-2" data-name="Layer 1"><path class="cls-1" d="M15.68.5c3.6-.73,7.32-.44,11-.47C49.11.06,71.57,0,94,.06c10.21.23,19.23,9.49,19.19,19.71.11,24.53.08,49.07.08,73.6,0,10.49-9.37,19.9-19.88,19.88-24.71,0-49.43,0-74.14,0C9,112.93,0,103.68,0,93.41,0,70.56,0,47.72.08,24.87a57.42,57.42,0,0,1,.23-8A20.73,20.73,0,0,1,15.68.5ZM7.83,26.06c0,10.17,0,20.35,0,30.53C8.05,66,16.18,74.32,25.57,74.84c7.79.19,15.59,0,23.39.11,1.8,3.84,3.74,7.63,5.59,11.46.51,1,.89,2.18,2.09,2.45,1.22-.23,1.6-1.47,2.11-2.43,1.88-3.83,3.78-7.66,5.64-11.51,7.79-.08,15.59.09,23.38-.08,9.37-.52,17.48-8.84,17.72-18.23,0-8.12,0-16.23,0-24.35-.07-3.58.34-7.26-.85-10.7A19.36,19.36,0,0,0,86.69,8h-60C17,8,8.21,16.39,7.83,26.06Z"/><path class="cls-2" d="M40.64,27.58a8.63,8.63,0,0,1,5,1.55c2.55,1.86,3.62,5.16,3.56,8.22,0,5.3,0,10.59,0,15.88-1.94,0-3.87,0-5.81,0-.08-5.29.12-10.59-.11-15.88a4,4,0,0,0-2.67-4C40.61,31.43,40.63,29.51,40.64,27.58Z"/><path class="cls-2" d="M19.52,53.18c.09-8.34-.1-16.69.11-25,1.93.06,3.86,0,5.8.06-.07,3.11,0,6.24-.08,9.35a7.71,7.71,0,0,1,10.64.1c3.87,3.73,3.74,10.82-.41,14.28-2.83,2.46-7.74,2.6-10.19-.48,0,.44,0,1.32,0,1.77C23.46,53.24,21.49,53.26,19.52,53.18Zm8-12.1c-2.94,1-3.08,5.79-.22,7,2.37,1.26,5.65-.67,5.42-3.44A3.73,3.73,0,0,0,27.48,41.08Z"/><path class="cls-2" d="M59.71,36c3.65-1,8-.47,10.8,2.22,3.77,3.53,3.49,10.42-.7,13.51-4.92,3.73-13.63,2.51-16-3.62C51.77,43.27,54.56,37.19,59.71,36ZM62,41c-3.06.85-3.47,5.67-.64,7.07,2.35,1.41,5.88-.5,5.56-3.33A3.71,3.71,0,0,0,62,41Z"/><path class="cls-2" d="M79.93,36.88c2.82-2,7.22-2,9.54.81,0-.41,0-1.21,0-1.61,2,0,3.91,0,5.86,0,0,5.51,0,11,0,16.54,0,3-1.07,6.17-3.55,8-2.16,1.63-5,1.81-7.59,1.7,0-1.8,0-3.6,0-5.4,1.38-.06,3,0,4-1s1.2-2.94,1.31-4.49a8,8,0,0,1-10.76.07C74.69,47.63,75.31,40.07,79.93,36.88Zm4.57,4c-2.89,1-3.16,5.62-.45,7,2.34,1.33,5.75-.39,5.62-3.21A3.78,3.78,0,0,0,84.5,40.91Z"/></g></g></svg>