<svg xmlns="http://www.w3.org/2000/svg" viewBox="0 0 509.47 514.79"><defs><style>.cls-1{fill:#231f20;}</style></defs><g id="Layer_2" data-name="Layer 2"><g id="Layer_2-2" data-name="Layer 2"><path class="cls-1" d="M434.86,333a253.59,253.59,0,0,0-99.27-61.56,147.66,147.66,0,0,0,67.29-123.81C402.88,66.23,336.65,0,255.23,0S107.59,66.23,107.59,147.65a147.62,147.62,0,0,0,66.95,123.58A255.17,255.17,0,0,0,0,513.15H36.77c0-118.91,95.72-215.88,214.15-217.92,1.43,0,2.87.07,4.31.07s2.72,0,4.07-.06c118.09,2.44,213.4,99.25,213.4,217.91v1.35l36.76.29v-.46c0-.39,0-.79,0-1.18A253.11,253.11,0,0,0,434.86,333ZM255.23,258.3A110.65,110.65,0,1,1,365.88,147.65,110.77,110.77,0,0,1,255.23,258.3Z"/></g></g></svg>